<svg width="25" height="25" viewBox="0 0 25 25" fill="none" xmlns="http://www.w3.org/2000/svg">
<path d="M11.6323 1.51431C12.0165 0.843845 12.9835 0.843845 13.3677 1.51431L16.6013 7.15793C16.7434 7.40582 16.9846 7.58112 17.2643 7.6396L23.6309 8.97102C24.3873 9.12919 24.6861 10.0489 24.1672 10.6214L19.799 15.4408C19.6072 15.6525 19.515 15.9361 19.5458 16.2201L20.247 22.6866C20.3303 23.4548 19.5479 24.0232 18.8431 23.7066L12.9097 21.0415C12.6491 20.9245 12.3509 20.9245 12.0903 21.0415L6.15694 23.7066C5.45206 24.0232 4.66974 23.4548 4.75303 22.6866L5.45418 16.2201C5.48498 15.9361 5.39282 15.6525 5.20095 15.4408L0.832809 10.6214C0.313871 10.0489 0.612692 9.12919 1.36905 8.97102L7.73571 7.6396C8.01536 7.58112 8.25664 7.40582 8.39868 7.15793L11.6323 1.51431Z" fill="#F0D162" stroke="#FFAC7C"/>
</svg>
